<?xml version="1.0" encoding="utf-8"?>
<?xml-stylesheet type="text/xsl" href="rss1.xsl"?>
<rss version="2.0" xmlns:atom="http://www.w3.org/2005/Atom" xmlns:content="http://purl.org/rss/1.0/modules/content/" xmlns:dc="http://purl.org/dc/elements/1.1/" xmlns:media="http://search.yahoo.com/mrss/">
<channel>
 <title>Getty</title>
 <link>http://www.gettyimg.com/</link>
 <atom:link href="http://www.gettyimg.com/" rel="self" type="application/rss+xml" />

 
                <item>
                <title><![CDATA[【Apple Music】WEB-RiP - Oana Radu - Strig (1080p)]]></title>
                <link><![CDATA[https://sharemania.us/threads/oana-radu-strig-1080p.249037/]]></link>
                <description><![CDATA[<article>
<blockquote class="messageText SelectQuoteContainer ugc baseHtml">
<img src="https://i.postimg.cc/65jX064s/Oana-Radu-Strig-mp4.jpg" class="bbCodeImage LbImage" alt="[​IMG]" data-url="https://i.postimg.cc/65jX064s/Oana-Radu-Strig-mp4.jpg" style=""><br>
<br>
<div class="bbCodeBlock bbCodeCode">
<div class="type">Code:</div>
<pre>General
Complete name                  : G:\Новая папка\Oana Radu - Strig.mp4
Format                         : MPEG-4
Format profile                 : Base Media
Codec ID                       : isom (isom/iso2/avc1/mp41)
File size                      : 163 MiB
Duration                       : 3 min 17 s
Overall bit rate               : 6 908 kb/s
Frame rate                     : 23.976 FPS
Movie name                     : Strig
Performer                      : Oana Radu
Genre                          : Pop
ContentType                    : Music Video
Recorded date                  : 2022-01-14 08:00:00 UTC
Writing application            : Lavf56.30.100
Copyright                      : ℗ 2017 Cat Music / Voices Media

Video
ID                             : 1
Format                         : AVC
Format/Info                    : Advanced Video Codec
Format profile                 : High@L4
Format settings                : CABAC / 5 Ref Frames
Format settings, CABAC         : Yes
Format settings, Reference fra : 5 frames
Format settings, Slice count   : 8 slices per frame
Codec ID                       : avc1
Codec ID/Info                  : Advanced Video Coding
Duration                       : 3 min 17 s
Bit rate                       : 6 640 kb/s
Width                          : 1 920 pixels
Height                         : 816 pixels
Display aspect ratio           : 2.35:1
Frame rate mode                : Constant
Frame rate                     : 23.976 (24000/1001) FPS
Color space                    : YUV
Chroma subsampling             : 4:2:0
Bit depth                      : 8 bits
Scan type                      : Progressive
Bits/(Pixel*Frame)             : 0.177
Stream size                    : 156 MiB (96%)
Color range                    : Limited
Color primaries                : BT.709
Transfer characteristics       : BT.709
Matrix coefficients            : BT.709
Codec configuration box        : avcC

Audio
ID                             : 2
Format                         : AAC LC
Format/Info                    : Advanced Audio Codec Low Complexity
Codec ID                       : mp4a-40-2
Duration                       : 3 min 17 s
Duration_LastFrame             : -5 ms
Bit rate mode                  : Constant
Bit rate                       : 265 kb/s
Channel(s)                     : 2 channels
Channel layout                 : L R
Sampling rate                  : 48.0 kHz
Frame rate                     : 46.875 FPS (1024 SPF)
Compression mode               : Lossy
Stream size                    : 6.19 MiB (4%)
Default                        : Yes
Alternate group                : 1


</pre>
</div>
<div class="bbCodeBlock bbCodeVfcHH HiddenContent">
<div class="attribution type">Hidden Content:</div>
<blockquote>You must either reply or click 'Like' to see the hidden information contained here.</blockquote>
</div>
<div class="messageTextEndMarker">&nbsp;</div>
</blockquote>
</article>]]></description>
                <author><![CDATA[vitalya3]]></author>
                </item>

                
                <item>
                <title><![CDATA[【Singles (lossy)】M4A - Sabrina Carpenter - Espresso [Explicit] (Stereo Spatial) 48KHZ/16Bits (385kbps)]]></title>
                <link><![CDATA[https://sharemania.us/threads/sabrina-carpenter-espresso-explicit-stereo-spatial-48khz-16bits-385kbps.249036/]]></link>
                <description><![CDATA[<article>
<blockquote class="messageText SelectQuoteContainer ugc baseHtml">
<img src="https://thumbs2.imgbox.com/9b/ef/GYAozvIS_t.jpg" class="bbCodeImage LbImage" alt="[​IMG]" data-url="https://thumbs2.imgbox.com/9b/ef/GYAozvIS_t.jpg" style=""><br>
<br>
Technical details<br>
(Volume normalized and intelligent)<br>
(Stereo audio expandable to 5.1 surround audio)<br>
(385KBPS Ultra High Quality 48KHZ/16)<br>
<br>
Supported Devices<br>
Android 9, Android TV 9, Google TV, IOS 13, Windows 11, Xbox one and Series, Amazon's Fire OS 7 (based on Android 9 Pie)<br>
<br>
<div class="bbCodeBlock bbCodeVfcHH HiddenContent">
<div class="attribution type">Hidden Content:</div>
<blockquote>You must reply before you can see the hidden data contained here.</blockquote>
</div>5.1 sound offers compatibility with new and legacy decoders (Dolby Pro Logic II).<br>
<img src="https://images2.imgbox.com/5c/b9/490YMHiI_o.png" class="bbCodeImage LbImage" alt="[​IMG]" data-url="https://images2.imgbox.com/5c/b9/490YMHiI_o.png" style=""><br>
And an exclusive binaural mode for headphones<br>
<img src="https://thumbs2.imgbox.com/5b/17/00QhIFT9_t.jpg" class="bbCodeImage LbImage" alt="[​IMG]" data-url="https://thumbs2.imgbox.com/5b/17/00QhIFT9_t.jpg" style="">
<div class="messageTextEndMarker">&nbsp;</div>
</blockquote>
</article>]]></description>
                <author><![CDATA[Reyn29392]]></author>
                </item>

                
                <item>
                <title><![CDATA[【Apple Music】WEB-RiP - Bere Gratis feat. Elena - Iarna ne-a surprins indragostiti (1080p)]]></title>
                <link><![CDATA[https://sharemania.us/threads/bere-gratis-feat-elena-iarna-ne-a-surprins-indragostiti-1080p.249039/]]></link>
                <description><![CDATA[<article>
<blockquote class="messageText SelectQuoteContainer ugc baseHtml">
<img src="https://i.postimg.cc/9MdpmMHr/Bere-Gratis-feat-Elena-Iarna-ne-a-surprins-indragostiti-mp4.jpg" class="bbCodeImage LbImage" alt="[​IMG]" data-url="https://i.postimg.cc/9MdpmMHr/Bere-Gratis-feat-Elena-Iarna-ne-a-surprins-indragostiti-mp4.jpg" style=""><br>
<br>
<div class="bbCodeBlock bbCodeCode">
<div class="type">Code:</div>
<pre>General
Complete name                  : G:\Новая папка\Bere Gratis feat. Elena - Iarna ne-a surprins indragostiti.mp4
Format                         : MPEG-4
Format profile                 : Base Media
Codec ID                       : isom (isom/iso2/avc1/mp41)
File size                      : 196 MiB
Duration                       : 4 min 1 s
Overall bit rate               : 6 831 kb/s
Frame rate                     : 25.000 FPS
Movie name                     : Iarna ne-a surprins indragostiti
Performer                      : Bere Gratis &amp; Elena
Genre                          : Rock
ContentType                    : Music Video
Recorded date                  : 2022-01-20 08:00:00 UTC
Writing application            : Lavf56.30.100
Copyright                      : ℗ 2016 Cat Music / Sprint Music / My List Media

Video
ID                             : 1
Format                         : AVC
Format/Info                    : Advanced Video Codec
Format profile                 : High@L4
Format settings                : CABAC / 5 Ref Frames
Format settings, CABAC         : Yes
Format settings, Reference fra : 5 frames
Format settings, Slice count   : 8 slices per frame
Codec ID                       : avc1
Codec ID/Info                  : Advanced Video Coding
Duration                       : 4 min 1 s
Bit rate                       : 6 564 kb/s
Width                          : 1 920 pixels
Height                         : 816 pixels
Display aspect ratio           : 2.35:1
Frame rate mode                : Constant
Frame rate                     : 25.000 FPS
Color space                    : YUV
Chroma subsampling             : 4:2:0
Bit depth                      : 8 bits
Scan type                      : Progressive
Bits/(Pixel*Frame)             : 0.168
Stream size                    : 189 MiB (96%)
Color range                    : Limited
Color primaries                : BT.709
Transfer characteristics       : BT.709
Matrix coefficients            : BT.709
Codec configuration box        : avcC

Audio
ID                             : 2
Format                         : AAC LC
Format/Info                    : Advanced Audio Codec Low Complexity
Codec ID                       : mp4a-40-2
Duration                       : 4 min 1 s
Duration_LastFrame             : -20 ms
Bit rate mode                  : Constant
Bit rate                       : 265 kb/s
Channel(s)                     : 2 channels
Channel layout                 : L R
Sampling rate                  : 48.0 kHz
Frame rate                     : 46.875 FPS (1024 SPF)
Compression mode               : Lossy
Stream size                    : 7.53 MiB (4%)
Default                        : Yes
Alternate group                : 1

</pre>
</div>
<div class="bbCodeBlock bbCodeVfcHH HiddenContent">
<div class="attribution type">Hidden Content:</div>
<blockquote>You must either reply or click 'Like' to see the hidden information contained here.</blockquote>
</div>
<div class="messageTextEndMarker">&nbsp;</div>
</blockquote>
</article>]]></description>
                <author><![CDATA[vitalya3]]></author>
                </item>

                
                <item>
                <title><![CDATA[【Requests】[REQ AUD] - Ariana Grande - 7 Rings (Untouched Pro Tools Session)]]></title>
                <link><![CDATA[https://sharemania.us/threads/ariana-grande-7-rings-untouched-pro-tools-session.249038/]]></link>
                <description><![CDATA[<article>
<blockquote class="messageText SelectQuoteContainer ugc baseHtml">
Hi everyone! I'm looking for the Pro Tools session for Ariana Grande - 7 Rings if anyone has it. I've came across several different multi tracks for the song all with slight differences in some of the vocal tracks so I assume someone out there has the PTX. If you can help, let me know! Thanks!
<div class="messageTextEndMarker">&nbsp;</div>
</blockquote>
</article>]]></description>
                <author><![CDATA[cityoflostdreams]]></author>
                </item>

                </channel></rss>